<?xml version="1.0" standalone="no"?>
<!DOCTYPE svg PUBLIC "-//W3C//DTD SVG 20010904//EN"
 "http://www.w3.org/TR/2001/REC-SVG-20010904/DTD/svg10.dtd">
<svg version="1.0" xmlns="http://www.w3.org/2000/svg"
 width="512.000000pt" height="512.000000pt" viewBox="0 0 512.000000 512.000000"
 preserveAspectRatio="xMidYMid meet">
<metadata>
Created by potrace 1.11, written by Peter Selinger 2001-2013
</metadata>
<g transform="translate(0.000000,512.000000) scale(0.100000,-0.100000)"
fill="#000000" stroke="none">
<path d="M1567 5099 c-87 -35 -146 -119 -153 -218 -3 -30 -6 -56 -7 -58 -2 -1
-71 -3 -155 -4 -166 -1 -238 -13 -325 -54 -148 -70 -269 -225 -302 -385 -13
-61 -16 -3888 -4 -3945 18 -82 75 -190 134 -254 65 -70 131 -114 223 -150 l67
-26 1485 -3 c1431 -2 1487 -2 1560 17 200 50 363 220 403 421 21 102 23 3870
2 3954 -34 142 -131 273 -255 347 -110 65 -181 80 -382 79 l-148 0 0 53 c0 98
-59 185 -155 228 -38 17 -93 18 -990 18 -916 0 -952 -1 -998 -20z m1844 -306
c0 -16 1 -83 2 -150 l2 -123 -852 0 -851 0 0 150 0 150 849 0 849 0 1 -27z
m-2000 -295 c4 -120 45 -196 134 -249 l40 -24 953 -3 c641 -2 966 1 992 8 99
27 180 133 180 238 l0 54 163 -4 c156 -3 164 -4 209 -31 26 -15 59 -43 74 -62
57 -75 55 -7 53 -1532 -1 -1052 -4 -1403 -12 -1403 -9 0 -9 -2 -1 -8 8 -5 11
-144 10 -497 -2 -474 -2 -491 -23 -535 -25 -54 -70 -101 -121 -126 -35 -18
-97 -19 -1485 -22 -980 -1 -1461 1 -1488 8 -56 15 -119 68 -148 125 l-26 49
-1 1912 c0 1835 0 1914 18 1961 29 76 94 136 168 154 14 4 89 7 168 8 141 1
142 1 143 -21z"/>
<path d="M2015 3710 c-11 -4 -101 -89 -200 -189 -99 -99 -183 -181 -188 -181
-4 0 -28 21 -54 46 -54 54 -95 74 -145 69 -103 -10 -163 -106 -127 -202 14
-38 226 -251 268 -269 42 -18 73 -18 114 -1 47 20 524 501 537 543 22 65 -9
143 -70 175 -36 20 -100 24 -135 9z"/>
<path d="M2999 3420 c-469 -5 -453 -4 -500 -50 -18 -18 -39 -74 -39 -103 0
-41 39 -103 79 -125 l40 -22 575 2 c563 3 575 3 602 24 49 36 67 69 67 123 1
55 -17 88 -67 125 -37 28 -173 33 -757 26z"/>
<path d="M2042 2640 c-40 -9 -35 -5 -244 -214 l-169 -169 -52 50 c-63 61 -84
73 -132 73 -80 0 -144 -56 -152 -134 -7 -62 14 -95 142 -223 136 -135 179
-153 264 -108 40 21 521 509 523 531 0 10 2 33 3 49 7 94 -84 166 -183 145z"/>
<path d="M2543 2399 c-44 -22 -83 -82 -83 -129 0 -44 38 -105 79 -128 l40 -22
575 2 c563 3 575 3 602 24 49 36 67 69 67 123 1 55 -17 88 -67 125 -27 21 -39
21 -599 24 -563 2 -573 2 -614 -19z"/>
<path d="M2042 1640 c-40 -9 -36 -6 -244 -214 l-169 -169 -27 26 c-15 14 -41
38 -59 55 -101 93 -253 25 -253 -113 0 -49 18 -74 147 -202 136 -135 178 -153
262 -108 26 14 479 462 506 502 21 30 28 88 15 127 -12 38 -55 81 -90 91 -45
12 -55 13 -88 5z"/>
<path d="M2537 1398 c-101 -59 -97 -207 9 -258 39 -20 62 -20 603 -20 372 0
569 4 582 10 11 6 25 8 32 4 6 -4 9 -4 6 0 -4 4 6 20 22 37 54 58 51 147 -7
203 -19 18 -49 36 -66 40 -17 3 -281 6 -587 6 -553 0 -556 -1 -594 -22z"/>
</g>
</svg>
